<?xml version="1.0" standalone="no"?><!DOCTYPE svg PUBLIC "-//W3C//DTD SVG 1.1//EN" "http://www.w3.org/Graphics/SVG/1.1/DTD/svg11.dtd"><svg t="1579376812807" class="icon" viewBox="0 0 1024 1024" version="1.1" xmlns="http://www.w3.org/2000/svg" p-id="2307" xmlns:xlink="http://www.w3.org/1999/xlink" width="200" height="200"><defs><style type="text/css"></style></defs><path d="M901.76 372c-23.656-55.904-57.464-106.088-100.59-149.18-43.09-43.092-93.276-76.934-149.148-100.558-57.872-24.498-119.352-36.904-182.692-36.904-63.356 0-124.806 12.406-182.678 36.904-55.888 23.624-106.088 57.466-149.18 100.558C94.38 265.912 60.554 316.098 36.916 372 12.432 429.874 0.026 491.338 0.026 554.678c0 63.342 12.406 124.806 36.888 182.68 23.64 55.872 57.466 106.088 100.558 149.18 43.09 43.09 93.292 76.902 149.18 100.556 57.872 24.466 119.322 36.874 182.678 36.874 63.34 0 124.82-12.406 182.692-36.874 55.874-23.654 106.058-57.466 149.148-100.556 43.124-43.092 76.934-93.308 100.59-149.18 24.466-57.874 36.874-119.338 36.874-182.68-0.002-63.34-12.408-124.804-36.874-182.678z" fill="#ED5564" p-id="2308"></path><path d="M695.584 328.41c-60.436-60.434-140.776-93.714-226.254-93.714-85.48 0-165.834 33.28-226.27 93.714s-93.714 140.806-93.714 226.268c0 85.464 33.28 165.804 93.714 226.27 60.434 60.436 140.79 93.714 226.27 93.714 85.478 0 165.818-33.28 226.254-93.714 60.464-60.464 93.744-140.804 93.744-226.27 0-85.464-33.28-165.834-93.744-226.268z" fill="#E6E9ED" p-id="2309"></path><path d="M469.33 384c-94.104 0-170.664 76.558-170.664 170.678 0 94.09 76.558 170.648 170.664 170.648 94.104 0 170.662-76.558 170.662-170.648 0-94.12-76.558-170.678-170.662-170.678z" fill="#ED5564" p-id="2310"></path><path d="M1022.784 165.136a21.352 21.352 0 0 0-17.78-14.124l-118.806-13.216-13.188-118.776a21.34 21.34 0 0 0-14.154-17.782 21.382 21.382 0 0 0-22.154 5.032l-150.836 150.868a21.232 21.232 0 0 0-6.124 12.968l-10.906 109.776a21.4 21.4 0 0 0 10.5 20.56 21.334 21.334 0 0 0 10.75 2.876c4.312 0 8.624-1.282 12.31-3.906l75.558-53.372-53.374 75.59a21.29 21.29 0 0 0-1 23.03 21.256 21.256 0 0 0 18.406 10.594c0.718 0 1.406-0.032 2.124-0.094l109.806-10.876a21.344 21.344 0 0 0 12.966-6.156l150.836-150.834c5.816-5.784 7.752-14.408 5.066-22.158z" fill="#F6BB42" p-id="2311"></path><path d="M469.33 575.99a21.184 21.184 0 0 1-15.092-6.25c-8.328-8.312-8.328-21.81 0.016-30.154l65.682-65.684c8.328-8.344 21.844-8.344 30.186 0 8.312 8.312 8.312 21.842 0 30.154l-65.714 65.684a21.16 21.16 0 0 1-15.078 6.25z" fill="#434A54" p-id="2312"></path><path d="M881.978 142.044c-3.624-3.624-10.032-7.936-19.998-7.936-19.624 0-56.904 17.216-195.522 142.086-75.246 67.808-145.648 136.492-146.336 137.18a21.41 21.41 0 0 0-6.436 15.282v60.308c0 11.782 9.562 21.344 21.342 21.344h60.34a21.22 21.22 0 0 0 15.25-6.438c0.75-0.75 75.684-77.528 146.398-156.586 41.778-46.716 73.996-85.152 95.776-114.276 13.624-18.216 23.124-32.654 29.06-44.216 3.94-7.656 15.908-30.968 0.126-46.748z" fill="#FFCE54" p-id="2313"></path></svg>